<svg width="128" height="128" viewBox="0 0 128 128" fill="none" xmlns="http://www.w3.org/2000/svg">
<g clip-path="url(#clip0_69_9)">
<rect width="128" height="128" fill="white"/>
<rect width="64" height="64" fill="#0DFF00"/>
<path d="M11.5 17.5H37.5C45.7843 17.5 52.5 24.2157 52.5 32.5C52.5 40.7843 45.7843 47.5 37.5 47.5H11.5V17.5Z" fill="#B0BEC5" stroke="black" stroke-width="3"/>
<rect y="64" width="64" height="64" fill="#2196F3"/>
<mask id="path-4-inside-1_69_9" fill="white">
<path fill-rule="evenodd" clip-rule="evenodd" d="M20.3247 96.2857C20.3247 104.857 14.7337 112.122 7 114.633C10.2851 115.242 13.7911 115.571 17.4318 115.571C30.3814 115.571 41.6276 111.404 47.287 105.288C43.6026 103.814 41 100.211 41 96C41 91.9384 43.4215 88.4423 46.8995 86.8766C41.1245 80.9835 30.0922 77 17.4318 77C13.7911 77 10.2851 77.3294 7 77.9389C14.7337 80.4499 20.3247 87.7149 20.3247 96.2857Z"/>
</mask>
<path fill-rule="evenodd" clip-rule="evenodd" d="M20.3247 96.2857C20.3247 104.857 14.7337 112.122 7 114.633C10.2851 115.242 13.7911 115.571 17.4318 115.571C30.3814 115.571 41.6276 111.404 47.287 105.288C43.6026 103.814 41 100.211 41 96C41 91.9384 43.4215 88.4423 46.8995 86.8766C41.1245 80.9835 30.0922 77 17.4318 77C13.7911 77 10.2851 77.3294 7 77.9389C14.7337 80.4499 20.3247 87.7149 20.3247 96.2857Z" fill="#B0BEC5"/>
<path d="M7 114.633L6.07356 111.779L6.45274 117.582L7 114.633ZM47.287 105.288L49.4889 107.326L52.452 104.123L48.4015 102.503L47.287 105.288ZM46.8995 86.8766L48.131 89.6123L52.0513 87.8475L49.0422 84.7769L46.8995 86.8766ZM7 77.9389L6.45274 74.9892L6.07356 80.7923L7 77.9389ZM7.92644 117.486C16.8601 114.585 23.3247 106.194 23.3247 96.2857H17.3247C17.3247 103.519 12.6074 109.658 6.07356 111.779L7.92644 117.486ZM17.4318 112.571C13.9708 112.571 10.648 112.258 7.54726 111.683L6.45274 117.582C9.92217 118.226 13.6115 118.571 17.4318 118.571V112.571ZM45.0851 103.25C40.1941 108.536 29.8954 112.571 17.4318 112.571V118.571C30.8674 118.571 43.0611 114.272 49.4889 107.326L45.0851 103.25ZM48.4015 102.503C45.817 101.469 44 98.9428 44 96H38C38 101.479 41.3883 106.159 46.1725 108.073L48.4015 102.503ZM44 96C44 93.1615 45.6898 90.7111 48.131 89.6123L45.6681 84.141C41.1532 86.1734 38 90.7152 38 96H44ZM17.4318 80C29.6049 80 39.7357 83.8526 44.7568 88.9764L49.0422 84.7769C42.5132 78.1143 30.5796 74 17.4318 74V80ZM7.54726 80.8886C10.648 80.3133 13.9708 80 17.4318 80V74C13.6115 74 9.92218 74.3455 6.45274 74.9892L7.54726 80.8886ZM23.3247 96.2857C23.3247 86.3771 16.8601 77.9861 7.92644 75.0855L6.07356 80.7923C12.6074 82.9137 17.3247 89.0527 17.3247 96.2857H23.3247Z" fill="black" mask="url(#path-4-inside-1_69_9)"/>
<circle cx="51" cy="96" r="6" fill="black"/>
<rect x="64" width="64" height="64" fill="#FF9800"/>
<mask id="path-8-inside-2_69_9" fill="white">
<path fill-rule="evenodd" clip-rule="evenodd" d="M76 50.6325C83.7337 48.1215 89.3247 40.8565 89.3247 32.2857C89.3247 23.7149 83.7337 16.4499 76 13.9389C79.2851 13.3294 82.7911 13 86.4318 13C105.071 13 120.182 29 120.182 32.2857C120.182 35.5714 105.071 51.5714 86.4318 51.5714C82.7911 51.5714 79.2851 51.242 76 50.6325Z"/>
</mask>
<path fill-rule="evenodd" clip-rule="evenodd" d="M76 50.6325C83.7337 48.1215 89.3247 40.8565 89.3247 32.2857C89.3247 23.7149 83.7337 16.4499 76 13.9389C79.2851 13.3294 82.7911 13 86.4318 13C105.071 13 120.182 29 120.182 32.2857C120.182 35.5714 105.071 51.5714 86.4318 51.5714C82.7911 51.5714 79.2851 51.242 76 50.6325Z" fill="#B0BEC5"/>
<path d="M76 50.6325L75.0736 47.7792L75.4527 53.5822L76 50.6325ZM76 13.9389L75.4527 10.9892L75.0736 16.7923L76 13.9389ZM86.3247 32.2857C86.3247 39.5187 81.6074 45.6578 75.0736 47.7792L76.9264 53.4859C85.8601 50.5853 92.3247 42.1944 92.3247 32.2857H86.3247ZM75.0736 16.7923C81.6074 18.9137 86.3247 25.0527 86.3247 32.2857H92.3247C92.3247 22.3771 85.8601 13.9861 76.9264 11.0855L75.0736 16.7923ZM76.5473 16.8886C79.648 16.3133 82.9708 16 86.4318 16V10C82.6115 10 78.9222 10.3455 75.4527 10.9892L76.5473 16.8886ZM86.4318 16C94.9128 16 102.744 19.6571 108.54 23.8428C111.423 25.9244 113.721 28.0798 115.267 29.8558C116.043 30.7479 116.589 31.4974 116.921 32.0531C117.343 32.7592 117.182 32.756 117.182 32.2857H123.182C123.182 30.994 122.548 29.772 122.071 28.9742C121.504 28.0261 120.724 26.9864 119.792 25.9165C117.923 23.7684 115.278 21.3078 112.053 18.9786C105.634 14.3429 96.5905 10 86.4318 10V16ZM117.182 32.2857C117.182 31.8154 117.343 31.8122 116.921 32.5183C116.589 33.0741 116.043 33.8235 115.267 34.7156C113.721 36.4917 111.423 38.6471 108.54 40.7286C102.744 44.9143 94.9128 48.5714 86.4318 48.5714V54.5714C96.5905 54.5714 105.634 50.2285 112.053 45.5928C115.278 43.2637 117.923 40.803 119.792 38.6549C120.724 37.585 121.504 36.5454 122.071 35.5972C122.548 34.7994 123.182 33.5775 123.182 32.2857H117.182ZM86.4318 48.5714C82.9708 48.5714 79.648 48.2582 76.5473 47.6829L75.4527 53.5822C78.9222 54.2259 82.6115 54.5714 86.4318 54.5714V48.5714Z" fill="black" mask="url(#path-8-inside-2_69_9)"/>
<path fill-rule="evenodd" clip-rule="evenodd" d="M71 46.9861V46.9745C75.4617 46.5178 79 39.9881 79 32C79 24.0119 75.4617 17.4822 71 17.0255V17.0139C71.1658 17.0047 71.3325 17 71.5 17C77.8513 17 83 23.7157 83 32C83 40.2843 77.8513 47 71.5 47C71.3325 47 71.1658 46.9953 71 46.9861Z" fill="black"/>
<rect x="64" y="64" width="64" height="64" fill="#009688"/>
<circle cx="115" cy="96" r="6" fill="black"/>
<mask id="path-13-inside-3_69_9" fill="white">
<path fill-rule="evenodd" clip-rule="evenodd" d="M98.5 80H71V113H98.5C104.242 113 109.298 110.067 112.254 105.618C108.066 104.425 105 100.57 105 96C105 91.6426 107.787 87.9362 111.676 86.5659C108.664 82.5776 103.883 80 98.5 80Z"/>
</mask>
<path fill-rule="evenodd" clip-rule="evenodd" d="M98.5 80H71V113H98.5C104.242 113 109.298 110.067 112.254 105.618C108.066 104.425 105 100.57 105 96C105 91.6426 107.787 87.9362 111.676 86.5659C108.664 82.5776 103.883 80 98.5 80Z" fill="#B0BEC5"/>
<path d="M71 80V77H68V80H71ZM71 113H68V116H71V113ZM112.254 105.618L114.753 107.278L117.024 103.858L113.076 102.733L112.254 105.618ZM111.676 86.5659L112.673 89.3954L116.542 88.0319L114.07 84.758L111.676 86.5659ZM71 83H98.5V77H71V83ZM74 113V80H68V113H74ZM98.5 110H71V116H98.5V110ZM109.755 103.958C107.332 107.606 103.195 110 98.5 110V116C105.288 116 111.265 112.529 114.753 107.278L109.755 103.958ZM113.076 102.733C110.143 101.897 108 99.195 108 96H102C102 101.946 105.989 106.952 111.432 108.503L113.076 102.733ZM108 96C108 92.9545 109.947 90.356 112.673 89.3954L110.678 83.7364C105.627 85.5164 102 90.3307 102 96H108ZM98.5 83C102.902 83 106.812 85.104 109.281 88.3738L114.07 84.758C110.515 80.0513 104.863 77 98.5 77V83Z" fill="black" mask="url(#path-13-inside-3_69_9)"/>
</g>
<defs>
<clipPath id="clip0_69_9">
<rect width="128" height="128" fill="white"/>
</clipPath>
</defs>
</svg>
